<svg xmlns="http://www.w3.org/2000/svg" viewBox="0 0 3000 3000" width="16" height="16">
<g transform="translate(0,3000) scale(1,-1)" fill="#6E6E6E" stroke="none">
<path d="M261 2960 c-98 -52 -171 -125 -221 -221 l-40 -77 0 -1161 0 -1161 36
-72 c50 -99 136 -184 235 -231 l76 -37 1153 0 1152 0 79 41 c98 51 174 126
223 218 l36 69 0 1172 0 1172 -37 72 c-49 93 -130 173 -223 220 l-73 36 -1161
0 -1161 -1 -74 -39z m1491 -338 c192 -52 325 -130 487 -287 120 -116 166 -179
231 -319 89 -190 110 -282 110 -479 0 -300 -64 -506 -221 -717 -279 -373 -737
-531 -1175 -404 -205 59 -352 159 -542 368 -52 57 -88 110 -126 185 -112 220
-131 310 -124 592 6 208 20 281 83 423 l26 59 222 -229 c336 -347 427 -443
489 -515 77 -88 143 -121 254 -127 60 -3 95 0 133 13 68 22 148 97 186 172 27
53 30 67 30 158 0 121 -19 169 -93 244 -79 79 -120 96 -232 96 -116 0 -163
-19 -246 -97 l-56 -53 -229 235 c-126 129 -247 256 -270 282 l-40 48 72 70
c121 118 280 213 449 268 108 35 158 41 335 38 133 -3 187 -8 247 -24z"/>
</g>
</svg>
